<svg xmlns="http://www.w3.org/2000/svg"  viewBox="0 0 48 48" width="48px" height="48px" baseProfile="basic"><path d="M42.948,31.525c-0.003-0.122-0.028-0.244-0.076-0.36c-0.105-0.255-0.312-0.456-0.57-0.553	c-3.016-1.14-5.052-3.817-5.418-7.035c0.309-2.644,1.829-4.924,4.292-6.274c0.259-0.143,0.442-0.392,0.5-0.683	c0.012-0.062,0.019-0.125,0.019-0.187c0.002-0.229-0.001-1.929,0-1.986c0.005-0.233-0.072-0.463-0.221-0.648	c-2.384-2.961-5.765-4.729-9.043-4.729c-0.474,0-0.907,0.031-1.323,0.076c1.159-1.942,1.671-4.092,1.426-6.096	c0.085-0.741,0.089-1.479-0.017-2.195c-0.076-0.517-0.53-0.888-1.058-0.852c-2.494,0.17-5.33,1.689-7.06,3.781	c-1.698,2.068-2.558,4.541-2.372,6.744c-0.387-0.121-0.781-0.262-1.195-0.41C19.46,9.626,17.904,9.07,15.971,9.07	c-3.732,0-7.512,2.254-9.862,5.882c-1.364,2.096-2.055,4.779-2.114,7.719c-0.01,0.489-0.002,2.264,0.003,2.658	c0.051,4.622,1.619,9.805,4.586,14.329c2.052,3.117,4.633,6.308,8.226,6.341c0.027,0,0.053,0,0.079,0c1.49,0,2.5-0.449,3.476-0.884	c1.063-0.473,2.068-0.92,3.901-0.927c1.814-0.038,2.821,0.435,3.866,0.913c0.971,0.444,1.96,0.88,3.494,0.893	c3.521-0.027,6.206-3.393,8.367-6.683c1.314-2.003,1.83-3.058,2.868-5.352c0.062-0.137,0.091-0.284,0.089-0.431	C42.946,33.405,42.952,31.673,42.948,31.525z"/><path fill="#fff" d="M41.949,31.548c-1.011,2.235-1.495,3.237-2.793,5.215c-1.816,2.763-4.372,6.207-7.539,6.232	c-2.812,0.02-3.543-1.84-7.361-1.806c-3.819,0.015-4.613,1.84-7.436,1.811c-3.163-0.03-5.585-3.133-7.401-5.891	c-5.072-7.732-5.61-16.79-2.472-21.611c2.215-3.419,5.728-5.427,9.024-5.427c3.36,0,5.467,1.845,8.245,1.845	c2.694,0,4.332-1.845,8.215-1.845c2.936,0,6.044,1.599,8.264,4.357C33.433,18.409,34.612,28.775,41.949,31.548z"/><path fill="#fff" d="M29.501,7.746c1.363-1.75,2.398-4.224,2.026-6.746c-2.226,0.153-4.834,1.578-6.355,3.418	c-1.378,1.678-2.522,4.167-2.074,6.579C25.525,11.073,28.043,9.624,29.501,7.746z"/><path d="M16.888,44c-0.026,0-0.052,0-0.079,0c-3.592-0.033-6.174-3.224-8.226-6.341c-5.019-7.65-6.059-17.199-2.475-22.706	c2.35-3.627,6.13-5.882,9.862-5.882c1.933,0,3.489,0.556,4.861,1.047c0.414,0.148,0.809,0.289,1.195,0.41	c-0.186-2.203,0.674-4.675,2.372-6.744c1.729-2.092,4.565-3.611,7.06-3.781c0.527-0.033,0.981,0.334,1.058,0.852	c0.367,2.484-0.445,5.219-2.226,7.505l0,0c-0.312,0.403-0.658,0.779-1.029,1.125c0.899-0.241,1.926-0.414,3.169-0.414	c3.278,0,6.659,1.768,9.043,4.729c0.186,0.23,0.26,0.531,0.202,0.821c-0.058,0.291-0.241,0.54-0.5,0.683	c-2.954,1.62-4.579,4.569-4.346,7.891c0.238,3.39,2.334,6.232,5.472,7.418c0.258,0.098,0.465,0.298,0.57,0.553	c0.106,0.255,0.101,0.543-0.013,0.794c-1.038,2.293-1.554,3.349-2.868,5.352c-2.162,3.29-4.846,6.656-8.367,6.683	c-1.534-0.018-2.523-0.449-3.494-0.893c-1.045-0.479-2.052-0.962-3.866-0.913c-1.833,0.007-2.837,0.454-3.901,0.927	C19.388,43.551,18.378,44,16.888,44z M15.971,11.07c-3.062,0-6.198,1.905-8.185,4.971c-2.654,4.078-2.69,12.654,2.469,20.519	c1.658,2.519,3.904,5.415,6.574,5.439c1.069,0.027,1.814-0.307,2.721-0.71c1.15-0.512,2.453-1.091,4.701-1.1	c2.278-0.035,3.569,0.572,4.711,1.094c0.878,0.402,1.569,0.729,2.647,0.711c2.594-0.02,4.949-3.1,6.71-5.781	c1.056-1.61,1.55-2.538,2.297-4.157c-3.33-1.651-5.514-4.907-5.782-8.723c-0.26-3.708,1.341-7.04,4.328-9.131	c-1.923-1.978-4.374-3.132-6.732-3.132c-1.936,0-3.256,0.5-4.533,0.983c-1.118,0.424-2.275,0.862-3.682,0.862	c-1.496,0-2.798-0.465-4.057-0.915C18.88,11.543,17.558,11.07,15.971,11.07z M30.605,2.156c-1.692,0.412-3.532,1.532-4.662,2.899	c-0.497,0.606-1.971,2.601-1.945,4.894c1.725-0.238,3.535-1.299,4.714-2.817c0,0,0-0.001,0.001-0.001	C29.312,6.362,30.574,4.47,30.605,2.156z"/></svg>